<?xml version="1.0" encoding="UTF-8"?>
<svg id="Ebene_1" xmlns="http://www.w3.org/2000/svg" version="1.1" viewBox="0 0 275.43 275.43">
  <!-- Generator: Adobe Illustrator 29.1.0, SVG Export Plug-In . SVG Version: 2.1.0 Build 142)  -->
  <defs>
    <style>
      .st0 {
        fill: #4c4798;
      }

      .st1 {
        fill: #fff;
      }
    </style>
  </defs>
  <circle class="st0" cx="137.71" cy="137.71" r="137.71"/>
  <rect class="st1" x="37.78" y="61.68" width="22.47" height="146.75"/>
  <rect class="st1" x="126.48" y="61.68" width="22.47" height="146.75"/>
  <rect class="st1" x="215.94" y="61.68" width="22.47" height="146.75"/>
  <polygon class="st1" points="84.48 128.87 93.19 128.87 87.08 141.63 78.29 141.63 84.48 128.87"/>
  <polygon class="st1" points="93.38 110.94 102.09 110.94 95.98 123.71 87.19 123.71 93.38 110.94"/>
  <polygon class="st1" points="103.01 91.68 111.73 91.68 105.61 104.45 96.82 104.45 103.01 91.68"/>
  <polygon class="st1" points="112.41 73.74 121.13 73.74 115.01 86.5 106.22 86.5 112.41 73.74"/>
  <polygon class="st1" points="75.73 146.79 84.44 146.79 78.32 159.55 69.53 159.55 75.73 146.79"/>
  <polygon class="st1" points="66.44 165.97 75.15 165.97 69.04 178.74 60.25 178.74 66.44 165.97"/>
  <polygon class="st1" points="57.38 183.17 66.09 183.17 59.98 195.94 51.19 195.94 57.38 183.17"/>
  <polygon class="st1" points="99.08 128.87 107.79 128.87 101.67 141.63 92.88 141.63 99.08 128.87"/>
  <polygon class="st1" points="107.98 110.94 116.69 110.94 110.58 123.71 101.79 123.71 107.98 110.94"/>
  <polygon class="st1" points="117.61 91.68 126.32 91.68 120.21 104.45 111.42 104.45 117.61 91.68"/>
  <polygon class="st1" points="127.01 73.74 135.73 73.74 129.61 86.5 120.82 86.5 127.01 73.74"/>
  <polygon class="st1" points="90.32 146.79 99.04 146.79 92.92 159.55 84.13 159.55 90.32 146.79"/>
  <polygon class="st1" points="81.04 165.97 89.75 165.97 83.64 178.74 74.85 178.74 81.04 165.97"/>
  <polygon class="st1" points="71.98 183.17 80.69 183.17 74.58 195.94 65.79 195.94 71.98 183.17"/>
  <polygon class="st1" points="173.43 128.87 182.14 128.87 176.03 141.63 167.24 141.63 173.43 128.87"/>
  <polygon class="st1" points="182.33 110.94 191.05 110.94 184.93 123.71 176.14 123.71 182.33 110.94"/>
  <polygon class="st1" points="191.96 91.68 200.68 91.68 194.56 104.45 185.77 104.45 191.96 91.68"/>
  <polygon class="st1" points="201.37 73.74 210.08 73.74 203.96 86.5 195.17 86.5 201.37 73.74"/>
  <polygon class="st1" points="164.68 146.79 173.39 146.79 167.28 159.55 158.49 159.55 164.68 146.79"/>
  <polygon class="st1" points="155.39 165.97 164.1 165.97 157.99 178.74 149.2 178.74 155.39 165.97"/>
  <polygon class="st1" points="146.33 183.17 155.05 183.17 148.93 195.94 140.14 195.94 146.33 183.17"/>
  <polygon class="st1" points="188.03 128.87 196.74 128.87 190.63 141.63 181.84 141.63 188.03 128.87"/>
  <polygon class="st1" points="196.93 110.94 205.65 110.94 199.53 123.71 190.74 123.71 196.93 110.94"/>
  <polygon class="st1" points="206.56 91.68 215.28 91.68 209.16 104.45 200.37 104.45 206.56 91.68"/>
  <polygon class="st1" points="215.96 73.74 224.68 73.74 218.56 86.5 209.77 86.5 215.96 73.74"/>
  <polygon class="st1" points="179.28 146.79 187.99 146.79 181.88 159.55 173.09 159.55 179.28 146.79"/>
  <polygon class="st1" points="169.99 165.97 178.7 165.97 172.59 178.74 163.8 178.74 169.99 165.97"/>
  <polygon class="st1" points="160.93 183.17 169.65 183.17 163.53 195.94 154.74 195.94 160.93 183.17"/>
  <polygon class="st1" points="207.33 61.68 204.4 67.7 213.19 67.7 215.92 61.68 207.33 61.68"/>
  <polygon class="st1" points="118.37 61.68 115.45 67.7 124.24 67.7 126.97 61.68 118.37 61.68"/>
  <polygon class="st1" points="158.02 208.43 160.89 202.43 152.18 202.43 149.27 208.43 158.02 208.43"/>
  <polygon class="st1" points="69.07 208.43 71.94 202.43 63.23 202.43 60.32 208.43 69.07 208.43"/>
</svg>